<svg viewBox="0 0 457.9 436.87" xmlns="http://www.w3.org/2000/svg"><g fill="#20c9bc" transform="translate(-18.74 -19.82)"><path d="m246.63 19.82q98.7 0 164.36 62.5t65.65 156.68q0 94.2-66.26 155.93t-167.1 61.74q-96.28.02-160.41-61.67t-64.13-154.76q0-95.42 64.59-157.92t163.3-62.5zm2.44 57.93q-73.11 0-120.16 45.73t-47.06 116.76q0 68.89 47.21 114.62t118.18 45.73q71.26 0 118.94-46.64t47.66-116.15q0-67.68-47.66-113.87t-117.11-46.18z"/><path d="m301 179.17c-13.55 47.77-26.53 93.5-39.5 139.22h-2.55c-1.66-3.36-3.48-6.65-4.94-10.09-5.81-13.67-11.94-27.22-17-41.15-2.46-6.68-6.8-9-13-10.25-17.42-3.62-34.77-7.57-52.14-11.42-.39-.09-.68-.66-2.42-2.45z"/></g></svg>